<svg xmlns="http://www.w3.org/2000/svg" xmlns:xlink="http://www.w3.org/1999/xlink" width="350" zoomAndPan="magnify" viewBox="0 0 262.5 74.999997" height="100" preserveAspectRatio="xMidYMid meet" version="1.0"><defs><g/><clipPath id="abf6a97c00"><path d="M 0 0.0703125 L 262 0.0703125 L 262 74.925781 L 0 74.925781 Z M 0 0.0703125 " clip-rule="nonzero"/></clipPath></defs><g clip-path="url(#abf6a97c00)"><path fill="#ffffff" d="M 0 0.0703125 L 262 0.0703125 L 262 74.929688 L 0 74.929688 Z M 0 0.0703125 " fill-opacity="1" fill-rule="nonzero"/></g><g fill="#221f20" fill-opacity="1"><g transform="translate(7.485741, 36.968632)"><g><path d="M 7.796875 0 L 0.8125 -28.625 L 4.46875 -28.625 L 7.546875 -14.84375 L 9.921875 -4.140625 L 10 -4.140625 L 12.671875 -14.84375 L 16.28125 -28.625 L 20.21875 -28.625 L 23.703125 -14.84375 L 26.359375 -4.1875 L 26.484375 -4.1875 L 28.953125 -14.84375 L 32.1875 -28.625 L 35.703125 -28.625 L 28.375 0 L 24.5625 0 L 20.828125 -14.265625 L 18.203125 -24.765625 L 18.125 -24.765625 L 15.421875 -14.265625 L 11.609375 0 Z M 7.796875 0 "/></g></g></g><g fill="#221f20" fill-opacity="1"><g transform="translate(44.059234, 36.968632)"><g><path d="M 21.734375 0 L 18.859375 -8.453125 L 7.296875 -8.453125 L 4.421875 0 L 0.9375 0 L 10.953125 -28.625 L 15.328125 -28.625 L 25.34375 0 Z M 13.15625 -25.421875 L 12.953125 -25.421875 L 8.125 -11.484375 L 18 -11.484375 Z M 13.15625 -25.421875 "/></g></g></g><g fill="#221f20" fill-opacity="1"><g transform="translate(70.382306, 36.968632)"><g><path d="M 7.25 0 L 3.8125 0 L 3.8125 -28.625 L 15.21875 -28.625 C 17.726562 -28.625 19.6875 -27.925781 21.09375 -26.53125 C 22.5 -25.132812 23.203125 -23.125 23.203125 -20.5 C 23.203125 -18.394531 22.71875 -16.664062 21.75 -15.3125 C 20.78125 -13.957031 19.351562 -13.0625 17.46875 -12.625 L 24.03125 0 L 20.125 0 L 13.9375 -12.296875 L 7.25 -12.296875 Z M 15.21875 -15.25 C 16.582031 -15.25 17.640625 -15.601562 18.390625 -16.3125 C 19.140625 -17.03125 19.515625 -18.046875 19.515625 -19.359375 L 19.515625 -21.484375 C 19.515625 -22.796875 19.140625 -23.804688 18.390625 -24.515625 C 17.640625 -25.222656 16.582031 -25.578125 15.21875 -25.578125 L 7.25 -25.578125 L 7.25 -15.25 Z M 15.21875 -15.25 "/></g></g></g><g fill="#221f20" fill-opacity="1"><g transform="translate(96.664381, 36.968632)"><g><path d="M 10.734375 -17.46875 L 7.296875 -23.828125 L 7.171875 -23.828125 L 7.171875 0 L 3.8125 0 L 3.8125 -28.625 L 7.796875 -28.625 L 18.25 -11.15625 L 21.6875 -4.796875 L 21.8125 -4.796875 L 21.8125 -28.625 L 25.171875 -28.625 L 25.171875 0 L 21.203125 0 Z M 10.734375 -17.46875 "/></g></g></g><g fill="#221f20" fill-opacity="1"><g transform="translate(125.693565, 36.968632)"><g><path d="M 3.8125 0 L 3.8125 -28.625 L 21.28125 -28.625 L 21.28125 -25.578125 L 7.25 -25.578125 L 7.25 -15.984375 L 20.453125 -15.984375 L 20.453125 -12.953125 L 7.25 -12.953125 L 7.25 -3.03125 L 21.28125 -3.03125 L 21.28125 0 Z M 3.8125 0 "/></g></g></g><g fill="#221f20" fill-opacity="1"><g transform="translate(149.638547, 36.968632)"><g><path d="M 11.3125 -14.0625 L 7.25 -9.546875 L 7.25 0 L 3.8125 0 L 3.8125 -28.625 L 7.25 -28.625 L 7.25 -13.40625 L 7.375 -13.40625 L 11.484375 -18.375 L 20.125 -28.625 L 24.359375 -28.625 L 13.6875 -16.359375 L 25.09375 0 L 20.828125 0 Z M 11.3125 -14.0625 "/></g></g></g><g fill="#221f20" fill-opacity="1"><g transform="translate(175.674614, 36.968632)"><g><path d="M 3.8125 0 L 3.8125 -28.625 L 21.28125 -28.625 L 21.28125 -25.578125 L 7.25 -25.578125 L 7.25 -15.984375 L 20.453125 -15.984375 L 20.453125 -12.953125 L 7.25 -12.953125 L 7.25 -3.03125 L 21.28125 -3.03125 L 21.28125 0 Z M 3.8125 0 "/></g></g></g><g fill="#221f20" fill-opacity="1"><g transform="translate(7.485741, 66.512193)"><g><path d="M 9.4375 0.34375 C 7.050781 0.34375 5.21875 -0.515625 3.9375 -2.234375 C 2.65625 -3.960938 2.015625 -6.554688 2.015625 -10.015625 C 2.015625 -13.484375 2.65625 -16.078125 3.9375 -17.796875 C 5.21875 -19.515625 7.050781 -20.375 9.4375 -20.375 C 10.914062 -20.375 12.179688 -19.992188 13.234375 -19.234375 C 14.285156 -18.484375 15.085938 -17.5 15.640625 -16.28125 L 15.09375 -16.015625 C 14.582031 -17.203125 13.84375 -18.128906 12.875 -18.796875 C 11.90625 -19.472656 10.757812 -19.8125 9.4375 -19.8125 C 7.332031 -19.8125 5.679688 -19.050781 4.484375 -17.53125 C 3.296875 -16.019531 2.703125 -13.71875 2.703125 -10.625 L 2.703125 -9.421875 C 2.703125 -6.316406 3.296875 -4.007812 4.484375 -2.5 C 5.679688 -0.988281 7.332031 -0.234375 9.4375 -0.234375 C 10.875 -0.234375 12.078125 -0.585938 13.046875 -1.296875 C 14.015625 -2.003906 14.742188 -2.988281 15.234375 -4.25 L 15.78125 -4.015625 C 15.269531 -2.691406 14.472656 -1.632812 13.390625 -0.84375 C 12.304688 -0.0507812 10.988281 0.34375 9.4375 0.34375 Z M 9.4375 0.34375 "/></g></g></g><g fill="#221f20" fill-opacity="1"><g transform="translate(25.020913, 66.512193)"><g><path d="M 9.765625 0.34375 C 7.253906 0.34375 5.332031 -0.515625 4 -2.234375 C 2.675781 -3.960938 2.015625 -6.554688 2.015625 -10.015625 C 2.015625 -13.484375 2.675781 -16.078125 4 -17.796875 C 5.332031 -19.515625 7.253906 -20.375 9.765625 -20.375 C 12.265625 -20.375 14.179688 -19.515625 15.515625 -17.796875 C 16.847656 -16.078125 17.515625 -13.484375 17.515625 -10.015625 C 17.515625 -6.554688 16.847656 -3.960938 15.515625 -2.234375 C 14.179688 -0.515625 12.265625 0.34375 9.765625 0.34375 Z M 9.765625 -0.234375 C 11.960938 -0.234375 13.6875 -1 14.9375 -2.53125 C 16.1875 -4.070312 16.8125 -6.367188 16.8125 -9.421875 L 16.8125 -10.625 C 16.8125 -13.664062 16.1875 -15.957031 14.9375 -17.5 C 13.6875 -19.039062 11.960938 -19.8125 9.765625 -19.8125 C 7.554688 -19.8125 5.828125 -19.039062 4.578125 -17.5 C 3.328125 -15.957031 2.703125 -13.664062 2.703125 -10.625 L 2.703125 -9.421875 C 2.703125 -6.367188 3.328125 -4.070312 4.578125 -2.53125 C 5.828125 -1 7.554688 -0.234375 9.765625 -0.234375 Z M 9.765625 -0.234375 "/></g></g></g><g fill="#221f20" fill-opacity="1"><g transform="translate(44.565024, 66.512193)"><g><path d="M 3.78125 -19.265625 L 3.703125 -19.265625 L 3.703125 0 L 3.09375 0 L 3.09375 -20.03125 L 4.015625 -20.03125 L 16.078125 -0.78125 L 16.15625 -0.78125 L 16.15625 -20.03125 L 16.765625 -20.03125 L 16.765625 0 L 15.84375 0 Z M 3.78125 -19.265625 "/></g></g></g><g fill="#221f20" fill-opacity="1"><g transform="translate(64.453524, 66.512193)"><g><path d="M 7.921875 0.34375 C 7.078125 0.34375 6.320312 0.257812 5.65625 0.09375 C 5 -0.0625 4.398438 -0.28125 3.859375 -0.5625 C 3.316406 -0.851562 2.828125 -1.195312 2.390625 -1.59375 C 1.960938 -2 1.566406 -2.441406 1.203125 -2.921875 L 1.71875 -3.296875 C 2.0625 -2.835938 2.429688 -2.421875 2.828125 -2.046875 C 3.234375 -1.679688 3.6875 -1.359375 4.1875 -1.078125 C 4.6875 -0.796875 5.242188 -0.582031 5.859375 -0.4375 C 6.472656 -0.300781 7.160156 -0.234375 7.921875 -0.234375 C 9.660156 -0.234375 11.007812 -0.640625 11.96875 -1.453125 C 12.925781 -2.265625 13.40625 -3.460938 13.40625 -5.046875 C 13.40625 -5.890625 13.273438 -6.585938 13.015625 -7.140625 C 12.753906 -7.703125 12.410156 -8.160156 11.984375 -8.515625 C 11.566406 -8.867188 11.078125 -9.140625 10.515625 -9.328125 C 9.953125 -9.515625 9.375 -9.664062 8.78125 -9.78125 L 6.78125 -10.15625 C 5.757812 -10.351562 4.921875 -10.617188 4.265625 -10.953125 C 3.617188 -11.285156 3.097656 -11.679688 2.703125 -12.140625 C 2.316406 -12.597656 2.046875 -13.09375 1.890625 -13.625 C 1.742188 -14.164062 1.671875 -14.734375 1.671875 -15.328125 C 1.671875 -17.023438 2.222656 -18.289062 3.328125 -19.125 C 4.441406 -19.957031 5.925781 -20.375 7.78125 -20.375 C 9.269531 -20.375 10.488281 -20.117188 11.4375 -19.609375 C 12.382812 -19.109375 13.132812 -18.457031 13.6875 -17.65625 L 13.171875 -17.28125 C 12.597656 -18.125 11.867188 -18.753906 10.984375 -19.171875 C 10.109375 -19.597656 9.019531 -19.8125 7.71875 -19.8125 C 6.019531 -19.8125 4.691406 -19.441406 3.734375 -18.703125 C 2.773438 -17.960938 2.296875 -16.835938 2.296875 -15.328125 C 2.296875 -14.546875 2.421875 -13.890625 2.671875 -13.359375 C 2.921875 -12.835938 3.257812 -12.398438 3.6875 -12.046875 C 4.113281 -11.703125 4.601562 -11.429688 5.15625 -11.234375 C 5.71875 -11.035156 6.316406 -10.878906 6.953125 -10.765625 L 8.953125 -10.390625 C 9.984375 -10.203125 10.820312 -9.929688 11.46875 -9.578125 C 12.125 -9.222656 12.644531 -8.8125 13.03125 -8.34375 C 13.414062 -7.875 13.675781 -7.363281 13.8125 -6.8125 C 13.957031 -6.269531 14.03125 -5.703125 14.03125 -5.109375 C 14.03125 -3.285156 13.476562 -1.921875 12.375 -1.015625 C 11.28125 -0.109375 9.796875 0.34375 7.921875 0.34375 Z M 7.921875 0.34375 "/></g></g></g><g fill="#221f20" fill-opacity="1"><g transform="translate(80.180655, 66.512193)"><g><path d="M 3.5 -20.03125 L 3.5 -7.6875 C 3.5 -6.332031 3.59375 -5.179688 3.78125 -4.234375 C 3.976562 -3.285156 4.300781 -2.515625 4.75 -1.921875 C 5.195312 -1.328125 5.789062 -0.894531 6.53125 -0.625 C 7.28125 -0.363281 8.222656 -0.234375 9.359375 -0.234375 C 10.460938 -0.234375 11.394531 -0.363281 12.15625 -0.625 C 12.914062 -0.894531 13.519531 -1.328125 13.96875 -1.921875 C 14.414062 -2.515625 14.734375 -3.285156 14.921875 -4.234375 C 15.117188 -5.179688 15.21875 -6.332031 15.21875 -7.6875 L 15.21875 -20.03125 L 15.84375 -20.03125 L 15.84375 -7.75 C 15.84375 -6.257812 15.734375 -5 15.515625 -3.96875 C 15.296875 -2.945312 14.925781 -2.113281 14.40625 -1.46875 C 13.894531 -0.832031 13.226562 -0.367188 12.40625 -0.078125 C 11.582031 0.203125 10.566406 0.34375 9.359375 0.34375 C 8.148438 0.34375 7.132812 0.203125 6.3125 -0.078125 C 5.488281 -0.367188 4.816406 -0.832031 4.296875 -1.46875 C 3.785156 -2.113281 3.421875 -2.945312 3.203125 -3.96875 C 2.984375 -5 2.875 -6.257812 2.875 -7.75 L 2.875 -20.03125 Z M 3.5 -20.03125 "/></g></g></g><g fill="#221f20" fill-opacity="1"><g transform="translate(98.921195, 66.512193)"><g><path d="M 3.09375 0 L 3.09375 -20.03125 L 3.734375 -20.03125 L 3.734375 -0.578125 L 13.0625 -0.578125 L 13.0625 0 Z M 3.09375 0 "/></g></g></g><g fill="#221f20" fill-opacity="1"><g transform="translate(112.581986, 66.512193)"><g><path d="M 8.359375 -19.453125 L 8.359375 0 L 7.71875 0 L 7.71875 -19.453125 L 0.484375 -19.453125 L 0.484375 -20.03125 L 15.578125 -20.03125 L 15.578125 -19.453125 Z M 8.359375 -19.453125 "/></g></g></g><g fill="#221f20" fill-opacity="1"><g transform="translate(128.682205, 66.512193)"><g><path d="M 1.953125 0 L 1.953125 -0.546875 L 5.015625 -0.546875 L 5.015625 -19.484375 L 1.953125 -19.484375 L 1.953125 -20.03125 L 8.71875 -20.03125 L 8.71875 -19.484375 L 5.65625 -19.484375 L 5.65625 -0.546875 L 8.71875 -0.546875 L 8.71875 0 Z M 1.953125 0 "/></g></g></g><g fill="#221f20" fill-opacity="1"><g transform="translate(139.386982, 66.512193)"><g><path d="M 3.78125 -19.265625 L 3.703125 -19.265625 L 3.703125 0 L 3.09375 0 L 3.09375 -20.03125 L 4.015625 -20.03125 L 16.078125 -0.78125 L 16.15625 -0.78125 L 16.15625 -20.03125 L 16.765625 -20.03125 L 16.765625 0 L 15.84375 0 Z M 3.78125 -19.265625 "/></g></g></g><g fill="#221f20" fill-opacity="1"><g transform="translate(159.27548, 66.512193)"><g><path d="M 16.21875 -3.265625 L 16.125 -3.265625 C 15.570312 -2.117188 14.773438 -1.226562 13.734375 -0.59375 C 12.691406 0.03125 11.367188 0.34375 9.765625 0.34375 C 7.253906 0.34375 5.332031 -0.515625 4 -2.234375 C 2.675781 -3.960938 2.015625 -6.554688 2.015625 -10.015625 C 2.015625 -13.484375 2.675781 -16.078125 4 -17.796875 C 5.332031 -19.515625 7.253906 -20.375 9.765625 -20.375 C 11.304688 -20.375 12.644531 -20 13.78125 -19.25 C 14.925781 -18.507812 15.773438 -17.519531 16.328125 -16.28125 L 15.78125 -16.015625 C 15.269531 -17.222656 14.488281 -18.15625 13.4375 -18.8125 C 12.382812 -19.476562 11.160156 -19.8125 9.765625 -19.8125 C 7.554688 -19.8125 5.828125 -19.039062 4.578125 -17.5 C 3.328125 -15.957031 2.703125 -13.664062 2.703125 -10.625 L 2.703125 -9.421875 C 2.703125 -6.367188 3.328125 -4.070312 4.578125 -2.53125 C 5.828125 -1 7.554688 -0.234375 9.765625 -0.234375 C 10.617188 -0.234375 11.429688 -0.351562 12.203125 -0.59375 C 12.984375 -0.832031 13.671875 -1.1875 14.265625 -1.65625 C 14.859375 -2.125 15.328125 -2.710938 15.671875 -3.421875 C 16.015625 -4.128906 16.1875 -4.957031 16.1875 -5.90625 L 16.1875 -8.953125 L 11.140625 -8.953125 L 11.140625 -9.53125 L 16.8125 -9.53125 L 16.8125 0 L 16.21875 0 Z M 16.21875 -3.265625 "/></g></g></g><path stroke-linecap="butt" transform="matrix(0.61512, 0.000000000000001222, -0.000000000000001222, 0.61512, 179.406297, 38.626746)" fill="none" stroke-linejoin="miter" d="M -0.0000771064 1.997533 L 28.614758 1.997533 " stroke="#3eb0ef" stroke-width="4" stroke-opacity="1" stroke-miterlimit="4"/></svg>